<svg xmlns="http://www.w3.org/2000/svg" viewBox="2 0 1078 1078">
  <path d="M1021.362,0H60C26.863,0,0,26.863,0,60v226.243v248.621V1080h0.763v-38.766 c5.517-1.947,13.343-4.977,14.425-5.554c1.082-0.577,24.703-13.596,27.371-15.002c2.669-1.406,25.893-16.085,27.083-15.83 c1.19,0.252,1.983,5.084,3.606,7.212c1.624,2.128,8.367,5.588,11.288,8.833c2.92,3.246,11.215,10.172,13.92,13.417 c2.705,3.245,13.163,17.166,14.75,19.582c3.821,6.442,7.312,13.072,10.458,19.868c0.901,1.949,1.25,4.106,1.009,6.239h37.866 c-4.511-1.152-8.792-3.067-12.658-5.662c-4.575-4.546-8.875-9.364-12.874-14.424c-4.988-6.288-9.383-13.023-13.126-20.123 c-0.541-1.875-5.374-10.782-5.914-13.92c-0.541-3.138-2.669-12.478-2.669-13.955c0-1.479-0.289-5.084-0.289-5.084l3.246,2.127 c0,0-2.2-2.416,1.046-3.211c3.246-0.792,16.914-5.084,23.368-6.165c9.619-2.453,18.897-6.087,27.624-10.819 c6.451-4.848,12.482-10.228,18.031-16.083c1.875-2.164,15.291-21.458,17.707-23.081c4.509-3.515,8.481-7.67,11.792-12.334 c2.128-3.749,9.917-16.407,10.458-19.327c0.541-2.923,0.541-13.921,2.417-18.753c1.875-4.833,10.206-13.955,11.54-16.083 c2.676-5.214,5.001-10.6,6.96-16.121c0.288-1.588-1.876-10.169,0-11.25c1.875-1.084,4.579-12.37,6.167-15.978 c1.814-4.947,2.896-10.135,3.209-15.397c-0.253-1.876,2.957,1.081,2.957,1.081c1.086-3.622,1.716-7.364,1.875-11.143 c0.102-6.449,0.827-12.874,2.164-19.186c1.264-4.092,1.968-8.34,2.091-12.622c-0.251-2.416-0.251-17.706-1.334-21.996 c-1.082-4.292-4.796-20.377-5.084-23.334c-0.289-2.956-0.649-12.008-6.167-17.813c-5.518-5.806-18.176-12.803-21.638-14.931 s-24.306-10.709-30.256-10.998c-10.283-0.523-20.586-0.523-30.87,0c-5.12,0.829-17.995,4.001-24.703,9.122 c-6.708,5.121-13.415,11.83-15.29,12.622c-1.875,0.795-4.94,2.993-6.419,1.769c-1.479-1.229-4.833,7.608-5.085,10.276 c-0.707,4.686-1.916,9.278-3.606,13.705c-1.334,2.668-8.583,16.877-9.917,19.294c-1.334,2.416-4.291,8.978-4.291,8.978 c-3.621,4.703-7.758,8.985-12.333,12.766c-5.374,3.752-30.04,20.086-33.286,22.791c-8.684,7.748-16.92,15.982-24.667,24.667 c-1.839,3.211-13.704,20.81-16.661,27.083c-2.957,6.275-6.707,21.746-8.583,27.911c-1.893,4.29-4.136,8.416-6.707,12.334v-289.65 h152.326c39.421-0.599,78.303,9.203,112.73,28.416c33.156,18.779,60.266,46.626,78.147,80.275 c19.079,35.774,28.886,75.758,28.525,116.301v21.637c0,43.322-9.148,82.148-27.443,116.48 c-17.66,33.607-44.464,61.537-77.318,80.563c-32.013,18.519-68.214,28.585-105.193,29.245h918.824v-0.611H755.077v-70.791 l150.667-158.384c37.096-42.266,55.655-75.851,55.68-100.76c0-20.169-4.399-35.508-13.199-46.015 c-8.799-10.506-21.565-15.76-38.296-15.76c-16.109-0.22-31.243,7.702-40.248,21.063c-10.313,14.063-15.458,31.614-15.434,52.649 H745.448c-0.186-28.029,7.295-55.577,21.637-79.662c14.243-24.255,34.975-44.05,59.863-57.159 c26.387-13.933,55.849-21.013,85.683-20.589c50.487,0,89.446,11.694,116.879,35.087c27.431,23.393,41.111,56.979,41.038,100.758 c-0.013,18.459-3.513,36.752-10.313,53.913c-8.127,19.712-18.899,38.226-32.023,55.032c-14.424,19.231-37.758,44.933-69.996,77.101 l-60.512,69.852h183.659V534.864V286.243V60C1081.362,26.863,1054.499,0,1021.362,0z M205.668,741.161 c1.082-2.668,2.417-6.708,5.625-7.753c4.129-1.509,8.479-2.325,12.875-2.416c3.786,0.252,8.294,3.135,8.583,5.048 c0.288,1.912-1.335,14.497-6.167,16.914c-5.669,2.333-12.134,1.626-17.166-1.876C206.649,748.566,205.254,744.876,205.668,741.161z M180.172,756.451c9.268,0.613,8.979,11.252,6.816,22.25c-2.164,10.998-2.705,13.162-4.039,13.162 c-1.335,0-4.292-7.248-5.013-11.179c-1.066-5.432-1.813-10.925-2.236-16.444C175.7,760.743,180.172,756.451,180.172,756.451z M144.507,729.368c4.172-0.021,8.306,0.8,12.153,2.416c4.079,2.478,6.921,6.564,7.825,11.253 c-0.505,9.917-11.035,10.457-15.327,9.662c-4.292-0.863-7.573-9.41-8.258-11.538C140.216,739.033,141.55,731.496,144.507,729.368z M724.098,1079.389H414.469V610.724h112.946v381.755h196.683V1079.389z"/>
</svg>
