<svg xmlns="http://www.w3.org/2000/svg" viewBox="0 0 300 185.2">
  <path d="M8.37 169.13a15.18 15.18 0 0 1-5.8-2.56 4.74 4.74 0 0 1-1.83-3.76A5 5 0 0 1 3 158.64 9.43 9.43 0 0 1 8.75 157a10.44 10.44 0 0 1 4.32.85 6.9 6.9 0 0 1 2.93 2.33 5.58 5.58 0 0 1 1 3.28h-3.07a3.75 3.75 0 0 0-1.35-3.06 5.9 5.9 0 0 0-3.83-1.1 6.06 6.06 0 0 0-3.6.9 3 3 0 0 0-1.27 2.56A2.7 2.7 0 0 0 5.1 165a12.65 12.65 0 0 0 4.15 1.65 20.13 20.13 0 0 1 4.6 1.66 6.63 6.63 0 0 1 2.45 2.12 5 5 0 0 1 .8 2.83 4.84 4.84 0 0 1-2.23 4.17 10.2 10.2 0 0 1-6 1.56 12.08 12.08 0 0 1-4.53-.84 7.53 7.53 0 0 1-3.24-2.32 5.27 5.27 0 0 1-1.1-3.35h3.12a3.57 3.57 0 0 0 1.58 3.06 7.1 7.1 0 0 0 4.2 1.13 6.58 6.58 0 0 0 3.77-.9 2.87 2.87 0 0 0 1.33-2.5 2.8 2.8 0 0 0-1.2-2.43 14.8 14.8 0 0 0-4.43-1.7zM42.86 168.66a12.27 12.27 0 0 1-1.16 5.5 8.3 8.3 0 0 1-3.3 3.57 9.78 9.78 0 0 1-5 1.23 9.66 9.66 0 0 1-4.93-1.24 8.52 8.52 0 0 1-3.34-3.54 11.73 11.73 0 0 1-1.22-5.33v-1.54a12 12 0 0 1 1.2-5.44 8.38 8.38 0 0 1 3.33-3.62A9.63 9.63 0 0 1 33.4 157a9.83 9.83 0 0 1 5 1.24 8.34 8.34 0 0 1 3.3 3.6 12.33 12.33 0 0 1 1.17 5.5zm-3.1-1.38a9 9 0 0 0-1.67-5.84 5.75 5.75 0 0 0-4.7-2 5.68 5.68 0 0 0-4.64 2A8.76 8.76 0 0 0 27 167.1v1.56a9 9 0 0 0 1.7 5.8 5.72 5.72 0 0 0 4.7 2.1 5.7 5.7 0 0 0 4.66-2 8.9 8.9 0 0 0 1.7-5.7zM54.3 176.36h11.17v2.3H51.2v-21.4h3.1zM88.38 157.27v14.55a6.5 6.5 0 0 1-2.1 5 8.9 8.9 0 0 1-5.63 2.17h-.82a9.4 9.4 0 0 1-6.16-1.9 6.5 6.5 0 0 1-2.33-5.22v-14.6h3.07v14.48a4.64 4.64 0 0 0 1.42 3.6 5.72 5.72 0 0 0 4 1.3 5.78 5.78 0 0 0 4-1.28 4.63 4.63 0 0 0 1.4-3.6v-14.5zM114.27 171.88a7.62 7.62 0 0 1-2.76 5.24 9.63 9.63 0 0 1-6.16 1.84 8.65 8.65 0 0 1-6.68-2.7 10.3 10.3 0 0 1-2.5-7.26v-2.06a11.2 11.2 0 0 1 1.16-5.24 8.27 8.27 0 0 1 3.32-3.48 9.93 9.93 0 0 1 5-1.2 9 9 0 0 1 6 1.9 7.7 7.7 0 0 1 2.64 5.26h-3.12a5.93 5.93 0 0 0-1.76-3.72 5.66 5.66 0 0 0-3.77-1.14 5.74 5.74 0 0 0-4.66 2 8.55 8.55 0 0 0-1.7 5.68v2.07a8.8 8.8 0 0 0 1.6 5.55 5.34 5.34 0 0 0 4.47 2.06 6.38 6.38 0 0 0 4-1.07 5.7 5.7 0 0 0 1.84-3.7zm-7.9 6.92l-.2.77c1.65.26 2.47 1.1 2.47 2.54a2.58 2.58 0 0 1-1.3 2.27 6.7 6.7 0 0 1-3.6.83l-.1-1.58a4.15 4.15 0 0 0 2-.38 1.17 1.17 0 0 0 .7-1.07 1.05 1.05 0 0 0-.52-1 5.83 5.83 0 0 0-2.1-.44l.5-2zM140.28 168.66a12.13 12.13 0 0 1-1.16 5.5 8.2 8.2 0 0 1-3.3 3.57 9.78 9.78 0 0 1-5 1.23 9.68 9.68 0 0 1-4.93-1.24 8.6 8.6 0 0 1-3.35-3.54 11.86 11.86 0 0 1-1.22-5.33v-1.54a12.1 12.1 0 0 1 1.18-5.44 8.38 8.38 0 0 1 3.35-3.62 9.63 9.63 0 0 1 4.94-1.26 9.8 9.8 0 0 1 5 1.24 8.23 8.23 0 0 1 3.3 3.6 12.2 12.2 0 0 1 1.17 5.5zm-3.08-1.38a9 9 0 0 0-1.68-5.84 5.78 5.78 0 0 0-4.7-2 5.7 5.7 0 0 0-4.64 2 8.76 8.76 0 0 0-1.74 5.65v1.56a9 9 0 0 0 1.7 5.8 6.36 6.36 0 0 0 9.36.12 9 9 0 0 0 1.7-5.7zm-.6-15.3a3.42 3.42 0 0 1-1 2.57 3.37 3.37 0 0 1-2.48 1 3.84 3.84 0 0 1-1.14-.15 6.5 6.5 0 0 1-1.27-.6 5.66 5.66 0 0 0-1.13-.55 2.73 2.73 0 0 0-.8-.1 1.6 1.6 0 0 0-1.13.46 1.62 1.62 0 0 0-.47 1.2l-2-.1a3.65 3.65 0 0 1 1-2.6 3.3 3.3 0 0 1 2.48-1 3.22 3.22 0 0 1 1 .14 8.46 8.46 0 0 1 1.23.57 6.36 6.36 0 0 0 1.18.57 3 3 0 0 0 .92.14 1.5 1.5 0 0 0 1.15-.5 1.66 1.66 0 0 0 .46-1.15zM161.92 168.78h-10.2v7.58h11.85v2.3h-14.95v-21.4h14.8v2.32h-11.7v6.9h10.2zM178 169.13a15.18 15.18 0 0 1-5.8-2.56 4.74 4.74 0 0 1-1.83-3.76 5 5 0 0 1 2.23-4.17 9.43 9.43 0 0 1 5.78-1.65 10.44 10.44 0 0 1 4.32.85 6.9 6.9 0 0 1 2.94 2.35 5.58 5.58 0 0 1 1 3.28h-3.1a3.75 3.75 0 0 0-1.37-3.06 5.92 5.92 0 0 0-3.83-1.1 6 6 0 0 0-3.6.9 3 3 0 0 0-1.27 2.56 2.7 2.7 0 0 0 1.22 2.22 12.65 12.65 0 0 0 4.14 1.65 20.13 20.13 0 0 1 4.6 1.66 6.63 6.63 0 0 1 2.56 2.1 5 5 0 0 1 .8 2.83 4.84 4.84 0 0 1-2.23 4.17 10.2 10.2 0 0 1-6 1.56 12.08 12.08 0 0 1-4.53-.84 7.53 7.53 0 0 1-3.24-2.32 5.27 5.27 0 0 1-1.14-3.33h3.12a3.55 3.55 0 0 0 1.58 3.06 7.1 7.1 0 0 0 4.2 1.13 6.58 6.58 0 0 0 3.77-.9 2.87 2.87 0 0 0 1.3-2.5 2.8 2.8 0 0 0-1.2-2.43 14.8 14.8 0 0 0-4.43-1.7zM219.6 168.78h-10.2v7.58h11.85v2.3H206.3v-21.4h14.8v2.32h-11.7v6.9h10.2zM232.8 157.27l7.7 17.46 7.7-17.46h4v21.4h-3.1v-8.33l.28-9-7.73 17.33h-2.35l-7.7-17.28.3 9v8.32h-3.1v-21.4zM288.86 159.58h-7.57v19.1h-3.1v-19.1h-7.55v-2.3h18.2zM299.35 178.67h-3.1v-21.4h3.1zM146.18 107.73h54.54v24.1h-85.86V1.87h31.32zM300 131.83h-90.7V112.2l41.8-43.92q15.42-17.58 15.43-27.94 0-8.4-3.66-12.76t-10.62-4.37a13.24 13.24 0 0 0-11.16 5.85q-4.3 5.85-4.3 14.6h-30.16a42.62 42.62 0 0 1 6-22.1 41.88 41.88 0 0 1 16.6-15.84A49.4 49.4 0 0 1 253 0q21 0 32.4 9.73t11.4 27.94a40.65 40.65 0 0 1-2.87 14.95 65.15 65.15 0 0 1-8.88 15.26q-6 8-19.4 21.38l-16.8 19.37H300zM95.3 31A55.53 55.53 0 0 0 73.65 8.74 62.2 62.2 0 0 0 42.38.86H.14v80.32A23.6 23.6 0 0 0 2 77.76c.52-1.7 1.56-6 2.38-7.74s4.1-6.62 4.62-7.5a84.88 84.88 0 0 1 6.84-6.85c.9-.75 7.74-5.28 9.23-6.32a22 22 0 0 0 3.42-3.54s.8-1.8 1.18-2.48 2.38-4.6 2.75-5.35a18.3 18.3 0 0 0 1-3.8c.07-.74 1-3.2 1.4-2.85s1.27-.27 1.8-.5 2.37-2.07 4.23-3.5 5.43-2.3 6.85-2.52a84.24 84.24 0 0 1 8.57 0c1.65.08 7.43 2.46 8.4 3.05s4.46 2.53 6 4.14 1.62 4.1 1.7 4.93 1.1 5.28 1.4 6.47.3 5.43.38 6.1a13.14 13.14 0 0 1-.58 3.5 27.8 27.8 0 0 0-.6 5.32 12.6 12.6 0 0 1-.52 3.1s-.9-.83-.82-.3a15 15 0 0 1-.9 4.26c-.43 1-1.18 4.13-1.7 4.43s.08 2.7 0 3.13a36.57 36.57 0 0 1-1.93 4.47c-.37.6-2.68 3.12-3.2 4.46s-.52 4.4-.67 5.2-2.3 4.32-2.9 5.36a16.3 16.3 0 0 1-3.27 3.42c-.67.45-4.4 5.8-4.9 6.4a39.93 39.93 0 0 1-5 4.46 33.38 33.38 0 0 1-7.67 3c-1.8.3-5.6 1.5-6.5 1.7s-.28.9-.28.9l-.9-.6s.08 1 .08 1.42.6 3 .74 3.87 1.5 3.33 1.64 3.85a36 36 0 0 0 3.64 5.58 44.82 44.82 0 0 0 3.57 4A11.33 11.33 0 0 0 45 132a60.4 60.4 0 0 0 29.17-8.1 55.82 55.82 0 0 0 21.44-22.35q7.62-14.28 7.62-32.3v-6A67.26 67.26 0 0 0 95.32 31zM34.22 130.27a61.15 61.15 0 0 0-2.9-5.5c-.44-.68-3.34-4.54-4.1-5.44s-3.04-2.82-3.85-3.72-2.68-1.85-3.13-2.44-.67-1.93-1-2-6.77 4-7.5 4.4-7.3 4-7.6 4.15-2.47 1-4 1.55V132H34.5a3.25 3.25 0 0 0-.28-1.73zM41.3 41.24c1.18.22 4.1.07 4.24-2.68a4.7 4.7 0 0 0-2.17-3.12 8.58 8.58 0 0 0-3.37-.67c-.82.6-1.2 2.68-1 3.27s1.1 2.96 2.3 3.2zM50.66 52.1c.37 0 .52-.6 1.12-3.65s.68-6-1.9-6.17c0 0-1.23 1.2-1.23 2.16a39.2 39.2 0 0 0 .62 4.56c.2 1.1 1.02 3.1 1.4 3.1zM58 40.8a5 5 0 0 0 4.76.5c1.34-.66 1.8-4.15 1.7-4.68s-1.32-1.33-2.37-1.4a11.1 11.1 0 0 0-3.58.67c-.9.28-1.26 1.4-1.56 2.14A3.23 3.23 0 0 0 58 40.8z" />
</svg>
