<svg xmlns="http://www.w3.org/2000/svg" viewBox="0 0 154.65 299.2">
  <path d="M4 272.59V210.9h19.9a29.25 29.25 0 0 1 14.71 3.7 26.14 26.14 0 0 1 10.19 10.47 31.54 31.54 0 0 1 3.7 15.15v2.84a31.75 31.75 0 0 1-3.58 15.19 26.06 26.06 0 0 1-10.08 10.5 28.59 28.59 0 0 1-14.51 3.84zm14.9-50.21v38.77h5.17q6.41 0 9.83-4.56t3.44-13.53v-2.67q0-8.94-3.44-13.48t-10-4.53zM73.7 261.15h25.89v11.44H58.83V210.9H73.7zM146.72 272.59h-43v-9.32l19.83-20.85q7.33-8.34 7.33-13.26 0-4-1.74-6.06a6.19 6.19 0 0 0-5-2.08 6.27 6.27 0 0 0-5.29 2.78 11.38 11.38 0 0 0-2 6.93H102.4a20.29 20.29 0 0 1 2.84-10.49 19.88 19.88 0 0 1 7.88-7.52 23.39 23.39 0 0 1 11.27-2.72q10 0 15.4 4.61t5.41 13.27a19.29 19.29 0 0 1-1.36 7.09 30.8 30.8 0 0 1-4.22 7.25 104.78 104.78 0 0 1-9.21 10.15l-8 9.19h24.28zM4.08 291.38a7.45 7.45 0 0 1-2.83-1.25 2.32 2.32 0 0 1-.89-1.83 2.44 2.44 0 0 1 1.09-2 4.57 4.57 0 0 1 2.81-.81 5.06 5.06 0 0 1 2.11.42A3.37 3.37 0 0 1 7.8 287a2.71 2.71 0 0 1 .51 1.59H6.79a1.82 1.82 0 0 0-.66-1.49 2.89 2.89 0 0 0-1.87-.54 2.93 2.93 0 0 0-1.74.45 1.44 1.44 0 0 0-.63 1.24 1.29 1.29 0 0 0 .6 1.08 5.85 5.85 0 0 0 2 .81 9.57 9.57 0 0 1 2.24.81 3.21 3.21 0 0 1 1.19 1 2.46 2.46 0 0 1 .39 1.39 2.38 2.38 0 0 1-1.08 2 5.06 5.06 0 0 1-2.91.76 6 6 0 0 1-2.21-.41 3.69 3.69 0 0 1-1.57-1.13A2.6 2.6 0 0 1 0 293h1.52a1.76 1.76 0 0 0 .77 1.5 3.48 3.48 0 0 0 2.05.54 3.19 3.19 0 0 0 1.84-.44 1.41 1.41 0 0 0 .63-1.21 1.36 1.36 0 0 0-.59-1.19 7.4 7.4 0 0 0-2.14-.82zM20.89 291.15a5.9 5.9 0 0 1-.57 2.67 4.08 4.08 0 0 1-1.61 1.75 4.75 4.75 0 0 1-2.42.6 4.67 4.67 0 0 1-2.41-.61 4.08 4.08 0 0 1-1.62-1.72 5.66 5.66 0 0 1-.6-2.6v-.75a5.82 5.82 0 0 1 .58-2.66 4.07 4.07 0 0 1 1.62-1.76 4.7 4.7 0 0 1 2.41-.62 4.82 4.82 0 0 1 2.43.61 4 4 0 0 1 1.62 1.75 6 6 0 0 1 .57 2.68zm-1.51-.67a4.34 4.34 0 0 0-.82-2.85 2.8 2.8 0 0 0-2.29-1 2.78 2.78 0 0 0-2.26 1 4.24 4.24 0 0 0-.84 2.75v.77A4.31 4.31 0 0 0 14 294a2.76 2.76 0 0 0 2.29 1 2.76 2.76 0 0 0 2.26-1 4.29 4.29 0 0 0 .83-2.78zM26.47 294.9h5.43v1.1H25v-10.4h1.52zM43.07 285.6v7.09a3.19 3.19 0 0 1-1 2.41 4.27 4.27 0 0 1-2.75 1h-.4a4.52 4.52 0 0 1-3-.93 3.14 3.14 0 0 1-1.14-2.54v-7.1h1.5v7.06a2.27 2.27 0 0 0 .69 1.76 2.75 2.75 0 0 0 1.95.62 2.76 2.76 0 0 0 2-.62 2.23 2.23 0 0 0 .69-1.75v-7zM55.68 292.72a3.72 3.72 0 0 1-1.34 2.55 4.71 4.71 0 0 1-3 .9 4.19 4.19 0 0 1-3.25-1.33 5 5 0 0 1-1.23-3.54v-1a5.49 5.49 0 0 1 .57-2.56 4 4 0 0 1 1.57-1.69 4.81 4.81 0 0 1 2.43-.6 4.42 4.42 0 0 1 2.93.93 3.77 3.77 0 0 1 1.32 2.62h-1.52a2.91 2.91 0 0 0-.85-1.81 2.79 2.79 0 0 0-1.84-.56 2.82 2.82 0 0 0-2.28 1 4.19 4.19 0 0 0-.82 2.78v1a4.29 4.29 0 0 0 .78 2.7 2.6 2.6 0 0 0 2.18 1 3.18 3.18 0 0 0 1.94-.51 2.8 2.8 0 0 0 .89-1.81zm-3.85 3.37l-.1.37c.81.13 1.21.54 1.21 1.24a1.25 1.25 0 0 1-.63 1.1 3.25 3.25 0 0 1-1.76.4v-.76a2 2 0 0 0 1-.19.58.58 0 0 0 .35-.52.51.51 0 0 0-.26-.47 2.71 2.71 0 0 0-1-.21l.25-1zM68.36 291.15a5.9 5.9 0 0 1-.57 2.67 4 4 0 0 1-1.61 1.75 4.75 4.75 0 0 1-2.42.6 4.67 4.67 0 0 1-2.41-.61 4.14 4.14 0 0 1-1.62-1.72 5.66 5.66 0 0 1-.6-2.6v-.75a6 6 0 0 1 .58-2.66 4 4 0 0 1 1.63-1.76 4.66 4.66 0 0 1 2.4-.62 4.82 4.82 0 0 1 2.43.61 4 4 0 0 1 1.62 1.75 6 6 0 0 1 .57 2.68zm-1.51-.67a4.34 4.34 0 0 0-.82-2.85 3.11 3.11 0 0 0-4.55 0 4.3 4.3 0 0 0-.84 2.75v.77a4.37 4.37 0 0 0 .83 2.82A3.1 3.1 0 0 0 66 294a4.34 4.34 0 0 0 .82-2.78zm-.29-7.48a1.64 1.64 0 0 1-1.69 1.73 1.86 1.86 0 0 1-.56-.07 3.18 3.18 0 0 1-.62-.29 2.6 2.6 0 0 0-.55-.27 1.48 1.48 0 0 0-.39-.05.75.75 0 0 0-.55.23.78.78 0 0 0-.23.57l-1-.05a1.74 1.74 0 0 1 .48-1.26 1.58 1.58 0 0 1 1.21-.5 1.49 1.49 0 0 1 .49.07 3.65 3.65 0 0 1 .6.28 3.68 3.68 0 0 0 .58.27 1.58 1.58 0 0 0 .45.06.74.74 0 0 0 .56-.24.81.81 0 0 0 .23-.57zM78.9 291.21h-5v3.69h5.8v1.1h-7.28v-10.4h7.21v1.12h-5.7v3.36h5zM86.76 291.38a7.45 7.45 0 0 1-2.83-1.25 2.29 2.29 0 0 1-.93-1.83 2.46 2.46 0 0 1 1.08-2 4.58 4.58 0 0 1 2.82-.81 5.06 5.06 0 0 1 2.11.42 3.43 3.43 0 0 1 1.47 1.09 2.71 2.71 0 0 1 .51 1.59h-1.52a1.82 1.82 0 0 0-.66-1.49 2.91 2.91 0 0 0-1.87-.54 3 3 0 0 0-1.75.45 1.45 1.45 0 0 0-.62 1.24 1.31 1.31 0 0 0 .59 1.08 5.92 5.92 0 0 0 2 .81 9.3 9.3 0 0 1 2.23.81 3.24 3.24 0 0 1 1.2 1 2.46 2.46 0 0 1 .39 1.39 2.36 2.36 0 0 1-1.09 2 5 5 0 0 1-2.9.76 6 6 0 0 1-2.21-.41 3.72 3.72 0 0 1-1.58-1.13 2.59 2.59 0 0 1-.55-1.63h1.55a1.74 1.74 0 0 0 .77 1.5 3.48 3.48 0 0 0 2 .54 3.13 3.13 0 0 0 1.83-.44 1.48 1.48 0 0 0 .05-2.4 7.4 7.4 0 0 0-2.09-.75zM107 291.21h-5v3.69h5.77v1.1h-7.29v-10.4h7.21v1.12H102v3.36h5zM113.44 285.6l3.75 8.51 3.75-8.51h2V296h-1.51v-4l.14-4.38-3.81 8.38h-1.15l-3.76-8.43.15 4.43v4h-1.51v-10.4zM140.76 286.72h-3.69V296h-1.51v-9.31h-3.67v-1.09h8.87zM145.87 296h-1.51v-10.4h1.51zM54.09 188.68c-.43-1.19-3.57-7-4.22-8s-4.88-6.62-6-7.92-4.45-4.12-5.64-5.42-3.9-2.71-4.55-3.58-1-2.82-1.52-2.93-9.87 5.86-10.95 6.4-10.63 5.86-11.07 6.07-3.6 1.42-5.78 2.25v15.71H54.5a4.79 4.79 0 0 0-.41-2.58zM143.16 43.93a80.94 80.94 0 0 0-31.59-32.44Q91.34 0 66 0H4.39v117.12a34.05 34.05 0 0 0 2.64-5c.76-2.49 2.28-8.67 3.47-11.28s6.07-9.65 6.83-11 8.68-8.89 10-10 11.28-7.7 13.45-9.22a31.62 31.62 0 0 0 5-5.15s1.2-2.65 1.74-3.63 3.47-6.72 4-7.81a26 26 0 0 0 1.41-5.53c.11-1.08 1.52-4.66 2.07-4.16s1.84-.39 2.6-.72 3.47-3 6.18-5.1 7.91-3.36 10-3.68 10.09-.11 12.49 0S97 38.49 98.45 39.35s6.51 3.69 8.78 6 2.39 6 2.5 7.19 1.62 7.7 2.06 9.44.43 7.92.54 8.89a19 19 0 0 1-.87 5.1 40.12 40.12 0 0 0-.86 7.76 19.05 19.05 0 0 1-.76 4.49s-1.31-1.19-1.2-.43a22.23 22.23 0 0 1-1.3 6.22c-.65 1.46-1.73 6-2.49 6.47s.11 3.9 0 4.55a54.6 54.6 0 0 1-2.82 6.51c-.54.87-3.91 4.55-4.67 6.51s-.75 6.39-1 7.59-3.36 6.36-4.2 7.85a23.8 23.8 0 0 1-4.77 5c-1 .65-6.4 8.46-7.16 9.33a56.91 56.91 0 0 1-7.23 6.49 47.79 47.79 0 0 1-11.17 4.44c-2.6.44-8.13 2.17-9.43 2.5s-.43 1.3-.43 1.3l-1.31-.87s.11 1.52.11 2.06.87 4.45 1.09 5.64S54 174.26 54.2 175a52.69 52.69 0 0 0 5.32 8.13c1.62 1.85 4 5 5.2 5.86a16.7 16.7 0 0 0 5 2.18 88 88 0 0 0 42.53-11.84 81.08 81.08 0 0 0 31.26-32.57q11.1-20.82 11.1-47.09v-8.8q-.1-25.99-11.45-46.94z"/>
  <path d="M88.8 58.22a7.25 7.25 0 0 0 6.94.76c2-1 2.6-6.07 2.49-6.84s-2-1.94-3.47-2a16.28 16.28 0 0 0-5.21 1c-1.3.43-1.84 2.06-2.27 3.14a4.68 4.68 0 0 0 1.52 3.94zM78.06 74.71c.54 0 .76-.87 1.63-5.32s1-8.78-2.76-9c0 0-1.8 1.74-1.8 3.15a57.27 57.27 0 0 0 .9 6.61c.3 1.63 1.49 4.56 2.03 4.56zM64.4 58.87c1.73.33 6 .11 6.19-3.9a6.79 6.79 0 0 0-3.16-4.55c-1.62-1-5-1-5-1-1.2.87-1.74 3.9-1.52 4.77s1.75 4.36 3.49 4.68z"/>
</svg>
